<mxfile host="app.diagrams.net" modified="2023-09-04T08:30:28.851Z" agent="Mozilla/5.0 (Windows NT 10.0; Win64; x64) AppleWebKit/537.36 (KHTML, like Gecko) Chrome/116.0.0.0 Safari/537.36 Edg/116.0.1938.54" etag="etkjbFqIEbuABg9HT8xl" version="21.7.2" type="device">
  <diagram name="Page-1" id="DZMdjqHMWv8o_AHQN4ft">
    <mxGraphModel dx="1379" dy="1230" grid="0" gridSize="10" guides="1" tooltips="1" connect="1" arrows="1" fold="1" page="0" pageScale="1" pageWidth="850" pageHeight="1100" math="0" shadow="0">
      <root>
        <mxCell id="0" />
        <mxCell id="1" parent="0" />
        <mxCell id="oM0R_nX2dgZcSL13MjSg-1" value="clubs" style="rounded=0;whiteSpace=wrap;html=1;" parent="1" vertex="1">
          <mxGeometry x="375" y="-23" width="80" height="50" as="geometry" />
        </mxCell>
        <mxCell id="oM0R_nX2dgZcSL13MjSg-4" value="matches" style="rounded=0;whiteSpace=wrap;html=1;" parent="1" vertex="1">
          <mxGeometry x="-155" y="-30" width="80" height="50" as="geometry" />
        </mxCell>
        <mxCell id="oM0R_nX2dgZcSL13MjSg-11" value="&lt;u&gt;id&lt;/u&gt;" style="ellipse;whiteSpace=wrap;html=1;" parent="1" vertex="1">
          <mxGeometry x="272" y="-8" width="49" height="27" as="geometry" />
        </mxCell>
        <mxCell id="oM0R_nX2dgZcSL13MjSg-12" value="name" style="ellipse;whiteSpace=wrap;html=1;" parent="1" vertex="1">
          <mxGeometry x="272" y="-44" width="49" height="27" as="geometry" />
        </mxCell>
        <mxCell id="oM0R_nX2dgZcSL13MjSg-14" value="updated_at" style="ellipse;whiteSpace=wrap;html=1;" parent="1" vertex="1">
          <mxGeometry x="434" y="-119" width="81" height="37" as="geometry" />
        </mxCell>
        <mxCell id="oM0R_nX2dgZcSL13MjSg-15" value="created_at" style="ellipse;whiteSpace=wrap;html=1;" parent="1" vertex="1">
          <mxGeometry x="288" y="-97" width="81" height="37" as="geometry" />
        </mxCell>
        <mxCell id="oM0R_nX2dgZcSL13MjSg-18" value="" style="endArrow=none;html=1;rounded=0;exitX=1;exitY=0.5;exitDx=0;exitDy=0;entryX=0;entryY=0.5;entryDx=0;entryDy=0;" parent="1" source="oM0R_nX2dgZcSL13MjSg-11" target="oM0R_nX2dgZcSL13MjSg-1" edge="1">
          <mxGeometry width="50" height="50" relative="1" as="geometry">
            <mxPoint x="312" y="40" as="sourcePoint" />
            <mxPoint x="362" y="-10" as="targetPoint" />
          </mxGeometry>
        </mxCell>
        <mxCell id="oM0R_nX2dgZcSL13MjSg-20" value="" style="endArrow=none;html=1;rounded=0;entryX=0;entryY=0;entryDx=0;entryDy=0;exitX=1;exitY=0.5;exitDx=0;exitDy=0;" parent="1" source="oM0R_nX2dgZcSL13MjSg-12" target="oM0R_nX2dgZcSL13MjSg-1" edge="1">
          <mxGeometry width="50" height="50" relative="1" as="geometry">
            <mxPoint x="330" y="-17" as="sourcePoint" />
            <mxPoint x="380" y="-67" as="targetPoint" />
          </mxGeometry>
        </mxCell>
        <mxCell id="oM0R_nX2dgZcSL13MjSg-21" value="" style="endArrow=none;html=1;rounded=0;exitX=0.5;exitY=1;exitDx=0;exitDy=0;entryX=0.5;entryY=0;entryDx=0;entryDy=0;" parent="1" source="oM0R_nX2dgZcSL13MjSg-15" target="oM0R_nX2dgZcSL13MjSg-1" edge="1">
          <mxGeometry width="50" height="50" relative="1" as="geometry">
            <mxPoint x="442" y="63" as="sourcePoint" />
            <mxPoint x="409" y="-21" as="targetPoint" />
          </mxGeometry>
        </mxCell>
        <mxCell id="oM0R_nX2dgZcSL13MjSg-22" value="" style="endArrow=none;html=1;rounded=0;exitX=0.5;exitY=0;exitDx=0;exitDy=0;entryX=0.5;entryY=1;entryDx=0;entryDy=0;" parent="1" source="oM0R_nX2dgZcSL13MjSg-1" target="oM0R_nX2dgZcSL13MjSg-14" edge="1">
          <mxGeometry width="50" height="50" relative="1" as="geometry">
            <mxPoint x="338" y="-50" as="sourcePoint" />
            <mxPoint x="425" y="-13" as="targetPoint" />
          </mxGeometry>
        </mxCell>
        <mxCell id="oM0R_nX2dgZcSL13MjSg-24" value="users" style="rounded=0;whiteSpace=wrap;html=1;" parent="1" vertex="1">
          <mxGeometry x="586" y="-338" width="80" height="50" as="geometry" />
        </mxCell>
        <mxCell id="oM0R_nX2dgZcSL13MjSg-25" value="&lt;u&gt;id&lt;/u&gt;" style="ellipse;whiteSpace=wrap;html=1;" parent="1" vertex="1">
          <mxGeometry x="470.5" y="-315" width="49" height="27" as="geometry" />
        </mxCell>
        <mxCell id="oM0R_nX2dgZcSL13MjSg-26" value="name" style="ellipse;whiteSpace=wrap;html=1;" parent="1" vertex="1">
          <mxGeometry x="455" y="-351" width="49" height="27" as="geometry" />
        </mxCell>
        <mxCell id="oM0R_nX2dgZcSL13MjSg-27" value="updated_at" style="ellipse;whiteSpace=wrap;html=1;" parent="1" vertex="1">
          <mxGeometry x="757" y="-383" width="81" height="37" as="geometry" />
        </mxCell>
        <mxCell id="oM0R_nX2dgZcSL13MjSg-28" value="created_at" style="ellipse;whiteSpace=wrap;html=1;" parent="1" vertex="1">
          <mxGeometry x="776" y="-338" width="81" height="37" as="geometry" />
        </mxCell>
        <mxCell id="oM0R_nX2dgZcSL13MjSg-29" value="" style="endArrow=none;html=1;rounded=0;exitX=1;exitY=0.5;exitDx=0;exitDy=0;entryX=0;entryY=0.5;entryDx=0;entryDy=0;" parent="1" source="oM0R_nX2dgZcSL13MjSg-25" target="oM0R_nX2dgZcSL13MjSg-24" edge="1">
          <mxGeometry width="50" height="50" relative="1" as="geometry">
            <mxPoint x="523" y="-275" as="sourcePoint" />
            <mxPoint x="573" y="-325" as="targetPoint" />
          </mxGeometry>
        </mxCell>
        <mxCell id="oM0R_nX2dgZcSL13MjSg-30" value="" style="endArrow=none;html=1;rounded=0;entryX=0;entryY=0.5;entryDx=0;entryDy=0;exitX=1;exitY=0.5;exitDx=0;exitDy=0;" parent="1" source="oM0R_nX2dgZcSL13MjSg-26" target="oM0R_nX2dgZcSL13MjSg-24" edge="1">
          <mxGeometry width="50" height="50" relative="1" as="geometry">
            <mxPoint x="541" y="-332" as="sourcePoint" />
            <mxPoint x="591" y="-382" as="targetPoint" />
          </mxGeometry>
        </mxCell>
        <mxCell id="oM0R_nX2dgZcSL13MjSg-31" value="" style="endArrow=none;html=1;rounded=0;exitX=0;exitY=0.5;exitDx=0;exitDy=0;entryX=1;entryY=0.5;entryDx=0;entryDy=0;" parent="1" source="oM0R_nX2dgZcSL13MjSg-28" target="oM0R_nX2dgZcSL13MjSg-24" edge="1">
          <mxGeometry width="50" height="50" relative="1" as="geometry">
            <mxPoint x="653" y="-252" as="sourcePoint" />
            <mxPoint x="620" y="-336" as="targetPoint" />
          </mxGeometry>
        </mxCell>
        <mxCell id="oM0R_nX2dgZcSL13MjSg-32" value="" style="endArrow=none;html=1;rounded=0;exitX=1;exitY=0.5;exitDx=0;exitDy=0;entryX=0;entryY=0.5;entryDx=0;entryDy=0;" parent="1" source="oM0R_nX2dgZcSL13MjSg-24" target="oM0R_nX2dgZcSL13MjSg-27" edge="1">
          <mxGeometry width="50" height="50" relative="1" as="geometry">
            <mxPoint x="549" y="-365" as="sourcePoint" />
            <mxPoint x="636" y="-328" as="targetPoint" />
          </mxGeometry>
        </mxCell>
        <mxCell id="oM0R_nX2dgZcSL13MjSg-33" value="email" style="ellipse;whiteSpace=wrap;html=1;" parent="1" vertex="1">
          <mxGeometry x="475" y="-387" width="49" height="27" as="geometry" />
        </mxCell>
        <mxCell id="oM0R_nX2dgZcSL13MjSg-35" value="dob" style="ellipse;whiteSpace=wrap;html=1;" parent="1" vertex="1">
          <mxGeometry x="524" y="-418" width="49" height="27" as="geometry" />
        </mxCell>
        <mxCell id="oM0R_nX2dgZcSL13MjSg-37" value="nationality" style="ellipse;whiteSpace=wrap;html=1;" parent="1" vertex="1">
          <mxGeometry x="573" y="-438" width="75.5" height="27" as="geometry" />
        </mxCell>
        <mxCell id="oM0R_nX2dgZcSL13MjSg-38" value="password" style="ellipse;whiteSpace=wrap;html=1;" parent="1" vertex="1">
          <mxGeometry x="762.5" y="-433" width="75.5" height="27" as="geometry" />
        </mxCell>
        <mxCell id="oM0R_nX2dgZcSL13MjSg-39" value="phone" style="ellipse;whiteSpace=wrap;html=1;" parent="1" vertex="1">
          <mxGeometry x="666" y="-440" width="75.5" height="27" as="geometry" />
        </mxCell>
        <mxCell id="oM0R_nX2dgZcSL13MjSg-40" value="" style="endArrow=none;html=1;rounded=0;entryX=0;entryY=0.5;entryDx=0;entryDy=0;exitX=1;exitY=1;exitDx=0;exitDy=0;" parent="1" source="oM0R_nX2dgZcSL13MjSg-33" target="oM0R_nX2dgZcSL13MjSg-24" edge="1">
          <mxGeometry width="50" height="50" relative="1" as="geometry">
            <mxPoint x="514" y="-327" as="sourcePoint" />
            <mxPoint x="596" y="-303" as="targetPoint" />
          </mxGeometry>
        </mxCell>
        <mxCell id="oM0R_nX2dgZcSL13MjSg-42" value="" style="endArrow=none;html=1;rounded=0;entryX=0.5;entryY=0;entryDx=0;entryDy=0;exitX=0.5;exitY=1;exitDx=0;exitDy=0;" parent="1" source="oM0R_nX2dgZcSL13MjSg-35" target="oM0R_nX2dgZcSL13MjSg-24" edge="1">
          <mxGeometry width="50" height="50" relative="1" as="geometry">
            <mxPoint x="524" y="-317" as="sourcePoint" />
            <mxPoint x="606" y="-293" as="targetPoint" />
          </mxGeometry>
        </mxCell>
        <mxCell id="oM0R_nX2dgZcSL13MjSg-43" value="" style="endArrow=none;html=1;rounded=0;entryX=0.5;entryY=0;entryDx=0;entryDy=0;exitX=0.5;exitY=1;exitDx=0;exitDy=0;" parent="1" source="oM0R_nX2dgZcSL13MjSg-37" target="oM0R_nX2dgZcSL13MjSg-24" edge="1">
          <mxGeometry width="50" height="50" relative="1" as="geometry">
            <mxPoint x="534" y="-307" as="sourcePoint" />
            <mxPoint x="616" y="-283" as="targetPoint" />
          </mxGeometry>
        </mxCell>
        <mxCell id="oM0R_nX2dgZcSL13MjSg-44" value="" style="endArrow=none;html=1;rounded=0;entryX=0.5;entryY=0;entryDx=0;entryDy=0;exitX=0.5;exitY=1;exitDx=0;exitDy=0;" parent="1" source="oM0R_nX2dgZcSL13MjSg-39" target="oM0R_nX2dgZcSL13MjSg-24" edge="1">
          <mxGeometry width="50" height="50" relative="1" as="geometry">
            <mxPoint x="544" y="-297" as="sourcePoint" />
            <mxPoint x="626" y="-273" as="targetPoint" />
          </mxGeometry>
        </mxCell>
        <mxCell id="oM0R_nX2dgZcSL13MjSg-45" value="" style="endArrow=none;html=1;rounded=0;entryX=0.5;entryY=0;entryDx=0;entryDy=0;exitX=0;exitY=1;exitDx=0;exitDy=0;" parent="1" source="oM0R_nX2dgZcSL13MjSg-38" target="oM0R_nX2dgZcSL13MjSg-24" edge="1">
          <mxGeometry width="50" height="50" relative="1" as="geometry">
            <mxPoint x="554" y="-287" as="sourcePoint" />
            <mxPoint x="636" y="-263" as="targetPoint" />
          </mxGeometry>
        </mxCell>
        <mxCell id="oM0R_nX2dgZcSL13MjSg-46" value="club_players" style="rounded=0;whiteSpace=wrap;html=1;" parent="1" vertex="1">
          <mxGeometry x="723" y="144" width="80" height="50" as="geometry" />
        </mxCell>
        <mxCell id="oM0R_nX2dgZcSL13MjSg-47" value="&lt;u&gt;id&lt;/u&gt;" style="ellipse;whiteSpace=wrap;html=1;" parent="1" vertex="1">
          <mxGeometry x="624" y="210" width="49" height="27" as="geometry" />
        </mxCell>
        <mxCell id="oM0R_nX2dgZcSL13MjSg-48" value="club_id" style="ellipse;whiteSpace=wrap;html=1;" parent="1" vertex="1">
          <mxGeometry x="609" y="172" width="49" height="27" as="geometry" />
        </mxCell>
        <mxCell id="oM0R_nX2dgZcSL13MjSg-49" value="updated_at" style="ellipse;whiteSpace=wrap;html=1;" parent="1" vertex="1">
          <mxGeometry x="835" y="61" width="81" height="37" as="geometry" />
        </mxCell>
        <mxCell id="oM0R_nX2dgZcSL13MjSg-50" value="created_at" style="ellipse;whiteSpace=wrap;html=1;" parent="1" vertex="1">
          <mxGeometry x="759.75" y="42" width="81" height="37" as="geometry" />
        </mxCell>
        <mxCell id="oM0R_nX2dgZcSL13MjSg-51" value="" style="endArrow=none;html=1;rounded=0;exitX=1;exitY=0.5;exitDx=0;exitDy=0;entryX=0;entryY=0.5;entryDx=0;entryDy=0;" parent="1" source="oM0R_nX2dgZcSL13MjSg-47" target="oM0R_nX2dgZcSL13MjSg-46" edge="1">
          <mxGeometry width="50" height="50" relative="1" as="geometry">
            <mxPoint x="660" y="207" as="sourcePoint" />
            <mxPoint x="710" y="157" as="targetPoint" />
          </mxGeometry>
        </mxCell>
        <mxCell id="oM0R_nX2dgZcSL13MjSg-52" value="" style="endArrow=none;html=1;rounded=0;entryX=0;entryY=0.5;entryDx=0;entryDy=0;exitX=1;exitY=0.5;exitDx=0;exitDy=0;" parent="1" source="oM0R_nX2dgZcSL13MjSg-48" target="oM0R_nX2dgZcSL13MjSg-46" edge="1">
          <mxGeometry width="50" height="50" relative="1" as="geometry">
            <mxPoint x="678" y="150" as="sourcePoint" />
            <mxPoint x="728" y="100" as="targetPoint" />
          </mxGeometry>
        </mxCell>
        <mxCell id="oM0R_nX2dgZcSL13MjSg-53" value="" style="endArrow=none;html=1;rounded=0;exitX=0.5;exitY=1;exitDx=0;exitDy=0;entryX=0.5;entryY=0;entryDx=0;entryDy=0;" parent="1" source="oM0R_nX2dgZcSL13MjSg-50" target="oM0R_nX2dgZcSL13MjSg-46" edge="1">
          <mxGeometry width="50" height="50" relative="1" as="geometry">
            <mxPoint x="790" y="230" as="sourcePoint" />
            <mxPoint x="757" y="146" as="targetPoint" />
          </mxGeometry>
        </mxCell>
        <mxCell id="oM0R_nX2dgZcSL13MjSg-54" value="" style="endArrow=none;html=1;rounded=0;exitX=0.5;exitY=0;exitDx=0;exitDy=0;entryX=0;entryY=1;entryDx=0;entryDy=0;" parent="1" source="oM0R_nX2dgZcSL13MjSg-46" target="oM0R_nX2dgZcSL13MjSg-49" edge="1">
          <mxGeometry width="50" height="50" relative="1" as="geometry">
            <mxPoint x="686" y="117" as="sourcePoint" />
            <mxPoint x="773" y="154" as="targetPoint" />
          </mxGeometry>
        </mxCell>
        <mxCell id="oM0R_nX2dgZcSL13MjSg-55" value="player_id" style="ellipse;whiteSpace=wrap;html=1;" parent="1" vertex="1">
          <mxGeometry x="688" y="52" width="61" height="27" as="geometry" />
        </mxCell>
        <mxCell id="oM0R_nX2dgZcSL13MjSg-56" value="" style="endArrow=none;html=1;rounded=0;exitX=0.5;exitY=0;exitDx=0;exitDy=0;entryX=1;entryY=1;entryDx=0;entryDy=0;" parent="1" source="oM0R_nX2dgZcSL13MjSg-46" target="oM0R_nX2dgZcSL13MjSg-55" edge="1">
          <mxGeometry width="50" height="50" relative="1" as="geometry">
            <mxPoint x="385" y="146" as="sourcePoint" />
            <mxPoint x="445" y="87" as="targetPoint" />
          </mxGeometry>
        </mxCell>
        <mxCell id="oM0R_nX2dgZcSL13MjSg-61" value="&lt;u&gt;id&lt;/u&gt;" style="ellipse;whiteSpace=wrap;html=1;" parent="1" vertex="1">
          <mxGeometry x="-185" y="52" width="49" height="27" as="geometry" />
        </mxCell>
        <mxCell id="oM0R_nX2dgZcSL13MjSg-62" value="home_team" style="ellipse;whiteSpace=wrap;html=1;" parent="1" vertex="1">
          <mxGeometry x="-278" y="52" width="83" height="27" as="geometry" />
        </mxCell>
        <mxCell id="oM0R_nX2dgZcSL13MjSg-63" value="away_team" style="ellipse;whiteSpace=wrap;html=1;" parent="1" vertex="1">
          <mxGeometry x="-285" y="22" width="83" height="27" as="geometry" />
        </mxCell>
        <mxCell id="oM0R_nX2dgZcSL13MjSg-64" value="overs_per_bowler" style="ellipse;whiteSpace=wrap;html=1;" parent="1" vertex="1">
          <mxGeometry x="-259" y="-114" width="108" height="27" as="geometry" />
        </mxCell>
        <mxCell id="oM0R_nX2dgZcSL13MjSg-65" value="end_time" style="ellipse;whiteSpace=wrap;html=1;" parent="1" vertex="1">
          <mxGeometry x="-297" y="-47" width="83" height="27" as="geometry" />
        </mxCell>
        <mxCell id="oM0R_nX2dgZcSL13MjSg-66" value="start_time" style="ellipse;whiteSpace=wrap;html=1;" parent="1" vertex="1">
          <mxGeometry x="-297" y="-12" width="83" height="27" as="geometry" />
        </mxCell>
        <mxCell id="oM0R_nX2dgZcSL13MjSg-67" value="overs" style="ellipse;whiteSpace=wrap;html=1;" parent="1" vertex="1">
          <mxGeometry x="-275" y="-78" width="83" height="27" as="geometry" />
        </mxCell>
        <mxCell id="oM0R_nX2dgZcSL13MjSg-68" value="ground" style="ellipse;whiteSpace=wrap;html=1;" parent="1" vertex="1">
          <mxGeometry x="-163" y="-136" width="83" height="27" as="geometry" />
        </mxCell>
        <mxCell id="oM0R_nX2dgZcSL13MjSg-70" value="home_captain" style="ellipse;whiteSpace=wrap;html=1;" parent="1" vertex="1">
          <mxGeometry x="-36" y="-165" width="89" height="27" as="geometry" />
        </mxCell>
        <mxCell id="oM0R_nX2dgZcSL13MjSg-71" value="win_team" style="ellipse;whiteSpace=wrap;html=1;" parent="1" vertex="1">
          <mxGeometry x="-123" y="-169" width="83" height="27" as="geometry" />
        </mxCell>
        <mxCell id="oM0R_nX2dgZcSL13MjSg-72" value="away_captain" style="ellipse;whiteSpace=wrap;html=1;" parent="1" vertex="1">
          <mxGeometry x="13" y="-133" width="89" height="27" as="geometry" />
        </mxCell>
        <mxCell id="oM0R_nX2dgZcSL13MjSg-74" value="keeper" style="ellipse;whiteSpace=wrap;html=1;" parent="1" vertex="1">
          <mxGeometry x="58" y="-64.5" width="89" height="27" as="geometry" />
        </mxCell>
        <mxCell id="oM0R_nX2dgZcSL13MjSg-76" value="power_play&amp;nbsp;" style="ellipse;whiteSpace=wrap;html=1;" parent="1" vertex="1">
          <mxGeometry x="58" y="-103" width="89" height="27" as="geometry" />
        </mxCell>
        <mxCell id="oM0R_nX2dgZcSL13MjSg-77" value="twelvth_man" style="ellipse;whiteSpace=wrap;html=1;" parent="1" vertex="1">
          <mxGeometry x="45" y="-30" width="89" height="27" as="geometry" />
        </mxCell>
        <mxCell id="oM0R_nX2dgZcSL13MjSg-78" value="updated_at" style="ellipse;whiteSpace=wrap;html=1;" parent="1" vertex="1">
          <mxGeometry x="-3" y="37" width="81" height="37" as="geometry" />
        </mxCell>
        <mxCell id="oM0R_nX2dgZcSL13MjSg-79" value="created_at" style="ellipse;whiteSpace=wrap;html=1;" parent="1" vertex="1">
          <mxGeometry x="26" width="81" height="37" as="geometry" />
        </mxCell>
        <mxCell id="oM0R_nX2dgZcSL13MjSg-81" value="" style="endArrow=none;html=1;rounded=0;exitX=0.5;exitY=0;exitDx=0;exitDy=0;entryX=0.5;entryY=1;entryDx=0;entryDy=0;" parent="1" source="oM0R_nX2dgZcSL13MjSg-61" target="oM0R_nX2dgZcSL13MjSg-4" edge="1">
          <mxGeometry width="50" height="50" relative="1" as="geometry">
            <mxPoint x="148" y="-180" as="sourcePoint" />
            <mxPoint x="202" y="-184" as="targetPoint" />
          </mxGeometry>
        </mxCell>
        <mxCell id="oM0R_nX2dgZcSL13MjSg-82" value="" style="endArrow=none;html=1;rounded=0;exitX=1;exitY=0;exitDx=0;exitDy=0;entryX=0.5;entryY=1;entryDx=0;entryDy=0;" parent="1" source="oM0R_nX2dgZcSL13MjSg-62" target="oM0R_nX2dgZcSL13MjSg-4" edge="1">
          <mxGeometry width="50" height="50" relative="1" as="geometry">
            <mxPoint x="259" y="-80" as="sourcePoint" />
            <mxPoint x="309" y="-130" as="targetPoint" />
          </mxGeometry>
        </mxCell>
        <mxCell id="oM0R_nX2dgZcSL13MjSg-83" value="" style="endArrow=none;html=1;rounded=0;exitX=1;exitY=0.5;exitDx=0;exitDy=0;entryX=0.5;entryY=1;entryDx=0;entryDy=0;" parent="1" source="oM0R_nX2dgZcSL13MjSg-63" target="oM0R_nX2dgZcSL13MjSg-4" edge="1">
          <mxGeometry width="50" height="50" relative="1" as="geometry">
            <mxPoint x="-181" y="-80" as="sourcePoint" />
            <mxPoint x="-131" y="-130" as="targetPoint" />
          </mxGeometry>
        </mxCell>
        <mxCell id="oM0R_nX2dgZcSL13MjSg-84" value="" style="endArrow=none;html=1;rounded=0;exitX=1;exitY=0.5;exitDx=0;exitDy=0;entryX=0;entryY=0.5;entryDx=0;entryDy=0;" parent="1" source="oM0R_nX2dgZcSL13MjSg-66" target="oM0R_nX2dgZcSL13MjSg-4" edge="1">
          <mxGeometry width="50" height="50" relative="1" as="geometry">
            <mxPoint x="-181" y="-80" as="sourcePoint" />
            <mxPoint x="-131" y="-130" as="targetPoint" />
          </mxGeometry>
        </mxCell>
        <mxCell id="oM0R_nX2dgZcSL13MjSg-85" value="" style="endArrow=none;html=1;rounded=0;exitX=1;exitY=0.5;exitDx=0;exitDy=0;entryX=0;entryY=0.5;entryDx=0;entryDy=0;" parent="1" source="oM0R_nX2dgZcSL13MjSg-65" target="oM0R_nX2dgZcSL13MjSg-4" edge="1">
          <mxGeometry width="50" height="50" relative="1" as="geometry">
            <mxPoint x="-204" y="12" as="sourcePoint" />
            <mxPoint x="-152" y="-4" as="targetPoint" />
          </mxGeometry>
        </mxCell>
        <mxCell id="oM0R_nX2dgZcSL13MjSg-86" value="" style="endArrow=none;html=1;rounded=0;exitX=1;exitY=1;exitDx=0;exitDy=0;entryX=0;entryY=0.5;entryDx=0;entryDy=0;" parent="1" source="oM0R_nX2dgZcSL13MjSg-67" target="oM0R_nX2dgZcSL13MjSg-4" edge="1">
          <mxGeometry width="50" height="50" relative="1" as="geometry">
            <mxPoint x="-194" y="22" as="sourcePoint" />
            <mxPoint x="-155" y="-4" as="targetPoint" />
          </mxGeometry>
        </mxCell>
        <mxCell id="oM0R_nX2dgZcSL13MjSg-87" value="" style="endArrow=none;html=1;rounded=0;exitX=1;exitY=1;exitDx=0;exitDy=0;entryX=0.5;entryY=0;entryDx=0;entryDy=0;" parent="1" source="oM0R_nX2dgZcSL13MjSg-64" target="oM0R_nX2dgZcSL13MjSg-4" edge="1">
          <mxGeometry width="50" height="50" relative="1" as="geometry">
            <mxPoint x="-184" y="32" as="sourcePoint" />
            <mxPoint x="-125" y="25" as="targetPoint" />
          </mxGeometry>
        </mxCell>
        <mxCell id="oM0R_nX2dgZcSL13MjSg-88" value="" style="endArrow=none;html=1;rounded=0;exitX=0.5;exitY=1;exitDx=0;exitDy=0;entryX=0.5;entryY=0;entryDx=0;entryDy=0;" parent="1" source="oM0R_nX2dgZcSL13MjSg-68" target="oM0R_nX2dgZcSL13MjSg-4" edge="1">
          <mxGeometry width="50" height="50" relative="1" as="geometry">
            <mxPoint x="-174" y="42" as="sourcePoint" />
            <mxPoint x="-115" y="35" as="targetPoint" />
          </mxGeometry>
        </mxCell>
        <mxCell id="oM0R_nX2dgZcSL13MjSg-89" value="" style="endArrow=none;html=1;rounded=0;exitX=1;exitY=1;exitDx=0;exitDy=0;entryX=0.5;entryY=0;entryDx=0;entryDy=0;" parent="1" source="oM0R_nX2dgZcSL13MjSg-71" target="oM0R_nX2dgZcSL13MjSg-4" edge="1">
          <mxGeometry width="50" height="50" relative="1" as="geometry">
            <mxPoint x="-164" y="52" as="sourcePoint" />
            <mxPoint x="-105" y="45" as="targetPoint" />
          </mxGeometry>
        </mxCell>
        <mxCell id="oM0R_nX2dgZcSL13MjSg-90" value="" style="endArrow=none;html=1;rounded=0;exitX=0;exitY=1;exitDx=0;exitDy=0;entryX=0.5;entryY=0;entryDx=0;entryDy=0;" parent="1" source="oM0R_nX2dgZcSL13MjSg-70" target="oM0R_nX2dgZcSL13MjSg-4" edge="1">
          <mxGeometry width="50" height="50" relative="1" as="geometry">
            <mxPoint x="-154" y="62" as="sourcePoint" />
            <mxPoint x="-95" y="55" as="targetPoint" />
          </mxGeometry>
        </mxCell>
        <mxCell id="oM0R_nX2dgZcSL13MjSg-91" value="" style="endArrow=none;html=1;rounded=0;exitX=0;exitY=0.5;exitDx=0;exitDy=0;entryX=0.5;entryY=0;entryDx=0;entryDy=0;" parent="1" source="oM0R_nX2dgZcSL13MjSg-72" target="oM0R_nX2dgZcSL13MjSg-4" edge="1">
          <mxGeometry width="50" height="50" relative="1" as="geometry">
            <mxPoint x="-144" y="72" as="sourcePoint" />
            <mxPoint x="-85" y="65" as="targetPoint" />
          </mxGeometry>
        </mxCell>
        <mxCell id="oM0R_nX2dgZcSL13MjSg-92" value="" style="endArrow=none;html=1;rounded=0;exitX=0;exitY=0.5;exitDx=0;exitDy=0;entryX=0.5;entryY=0;entryDx=0;entryDy=0;" parent="1" source="oM0R_nX2dgZcSL13MjSg-76" target="oM0R_nX2dgZcSL13MjSg-4" edge="1">
          <mxGeometry width="50" height="50" relative="1" as="geometry">
            <mxPoint x="-134" y="82" as="sourcePoint" />
            <mxPoint x="-75" y="75" as="targetPoint" />
          </mxGeometry>
        </mxCell>
        <mxCell id="oM0R_nX2dgZcSL13MjSg-93" value="" style="endArrow=none;html=1;rounded=0;exitX=0;exitY=0.5;exitDx=0;exitDy=0;entryX=1;entryY=0;entryDx=0;entryDy=0;" parent="1" source="oM0R_nX2dgZcSL13MjSg-74" target="oM0R_nX2dgZcSL13MjSg-4" edge="1">
          <mxGeometry width="50" height="50" relative="1" as="geometry">
            <mxPoint x="-124" y="92" as="sourcePoint" />
            <mxPoint x="-65" y="85" as="targetPoint" />
          </mxGeometry>
        </mxCell>
        <mxCell id="oM0R_nX2dgZcSL13MjSg-94" value="" style="endArrow=none;html=1;rounded=0;exitX=1;exitY=0;exitDx=0;exitDy=0;entryX=0;entryY=0.5;entryDx=0;entryDy=0;" parent="1" source="oM0R_nX2dgZcSL13MjSg-4" target="oM0R_nX2dgZcSL13MjSg-77" edge="1">
          <mxGeometry width="50" height="50" relative="1" as="geometry">
            <mxPoint x="-114" y="102" as="sourcePoint" />
            <mxPoint x="-55" y="95" as="targetPoint" />
          </mxGeometry>
        </mxCell>
        <mxCell id="oM0R_nX2dgZcSL13MjSg-95" value="" style="endArrow=none;html=1;rounded=0;exitX=1;exitY=0;exitDx=0;exitDy=0;entryX=0;entryY=0;entryDx=0;entryDy=0;" parent="1" source="oM0R_nX2dgZcSL13MjSg-4" target="oM0R_nX2dgZcSL13MjSg-79" edge="1">
          <mxGeometry width="50" height="50" relative="1" as="geometry">
            <mxPoint x="-104" y="112" as="sourcePoint" />
            <mxPoint x="-45" y="105" as="targetPoint" />
          </mxGeometry>
        </mxCell>
        <mxCell id="oM0R_nX2dgZcSL13MjSg-96" value="" style="endArrow=none;html=1;rounded=0;exitX=1;exitY=0;exitDx=0;exitDy=0;entryX=0.5;entryY=0;entryDx=0;entryDy=0;" parent="1" source="oM0R_nX2dgZcSL13MjSg-4" target="oM0R_nX2dgZcSL13MjSg-78" edge="1">
          <mxGeometry width="50" height="50" relative="1" as="geometry">
            <mxPoint x="-94" y="122" as="sourcePoint" />
            <mxPoint x="-35" y="115" as="targetPoint" />
          </mxGeometry>
        </mxCell>
        <mxCell id="oM0R_nX2dgZcSL13MjSg-97" value="match_players" style="rounded=0;whiteSpace=wrap;html=1;" parent="1" vertex="1">
          <mxGeometry x="-163" y="234" width="88" height="50" as="geometry" />
        </mxCell>
        <mxCell id="oM0R_nX2dgZcSL13MjSg-98" value="&lt;u&gt;id&lt;/u&gt;" style="ellipse;whiteSpace=wrap;html=1;" parent="1" vertex="1">
          <mxGeometry x="-19" y="340" width="49" height="27" as="geometry" />
        </mxCell>
        <mxCell id="oM0R_nX2dgZcSL13MjSg-99" value="club_id" style="ellipse;whiteSpace=wrap;html=1;" parent="1" vertex="1">
          <mxGeometry x="-78" y="357.5" width="49" height="27" as="geometry" />
        </mxCell>
        <mxCell id="oM0R_nX2dgZcSL13MjSg-101" value="created_at" style="ellipse;whiteSpace=wrap;html=1;" parent="1" vertex="1">
          <mxGeometry x="-250" y="359" width="81" height="37" as="geometry" />
        </mxCell>
        <mxCell id="oM0R_nX2dgZcSL13MjSg-102" value="" style="endArrow=none;html=1;rounded=0;exitX=0.5;exitY=0;exitDx=0;exitDy=0;entryX=0.5;entryY=1;entryDx=0;entryDy=0;" parent="1" source="oM0R_nX2dgZcSL13MjSg-98" target="oM0R_nX2dgZcSL13MjSg-97" edge="1">
          <mxGeometry width="50" height="50" relative="1" as="geometry">
            <mxPoint x="-226" y="297" as="sourcePoint" />
            <mxPoint x="-176" y="247" as="targetPoint" />
          </mxGeometry>
        </mxCell>
        <mxCell id="oM0R_nX2dgZcSL13MjSg-103" value="" style="endArrow=none;html=1;rounded=0;exitX=0.5;exitY=0;exitDx=0;exitDy=0;entryX=0.5;entryY=1;entryDx=0;entryDy=0;" parent="1" source="oM0R_nX2dgZcSL13MjSg-99" target="oM0R_nX2dgZcSL13MjSg-97" edge="1">
          <mxGeometry width="50" height="50" relative="1" as="geometry">
            <mxPoint x="-208" y="240" as="sourcePoint" />
            <mxPoint x="-119" y="285" as="targetPoint" />
          </mxGeometry>
        </mxCell>
        <mxCell id="oM0R_nX2dgZcSL13MjSg-104" value="" style="endArrow=none;html=1;rounded=0;exitX=0.5;exitY=0;exitDx=0;exitDy=0;entryX=0.5;entryY=1;entryDx=0;entryDy=0;" parent="1" source="oM0R_nX2dgZcSL13MjSg-101" target="oM0R_nX2dgZcSL13MjSg-97" edge="1">
          <mxGeometry width="50" height="50" relative="1" as="geometry">
            <mxPoint x="-96" y="320" as="sourcePoint" />
            <mxPoint x="-128" y="282" as="targetPoint" />
          </mxGeometry>
        </mxCell>
        <mxCell id="oM0R_nX2dgZcSL13MjSg-106" value="player_id" style="ellipse;whiteSpace=wrap;html=1;" parent="1" vertex="1">
          <mxGeometry x="-160" y="372" width="61" height="27" as="geometry" />
        </mxCell>
        <mxCell id="oM0R_nX2dgZcSL13MjSg-107" value="" style="endArrow=none;html=1;rounded=0;exitX=0.5;exitY=1;exitDx=0;exitDy=0;entryX=0.5;entryY=0;entryDx=0;entryDy=0;" parent="1" source="oM0R_nX2dgZcSL13MjSg-97" target="oM0R_nX2dgZcSL13MjSg-106" edge="1">
          <mxGeometry width="50" height="50" relative="1" as="geometry">
            <mxPoint x="-501" y="236" as="sourcePoint" />
            <mxPoint x="-441" y="177" as="targetPoint" />
          </mxGeometry>
        </mxCell>
        <mxCell id="oM0R_nX2dgZcSL13MjSg-130" value="roles" style="rounded=0;whiteSpace=wrap;html=1;" parent="1" vertex="1">
          <mxGeometry x="303" y="-192" width="80" height="50" as="geometry" />
        </mxCell>
        <mxCell id="oM0R_nX2dgZcSL13MjSg-131" value="&lt;u&gt;id&lt;/u&gt;" style="ellipse;whiteSpace=wrap;html=1;" parent="1" vertex="1">
          <mxGeometry x="200" y="-177" width="49" height="27" as="geometry" />
        </mxCell>
        <mxCell id="oM0R_nX2dgZcSL13MjSg-132" value="name" style="ellipse;whiteSpace=wrap;html=1;" parent="1" vertex="1">
          <mxGeometry x="200" y="-213" width="49" height="27" as="geometry" />
        </mxCell>
        <mxCell id="oM0R_nX2dgZcSL13MjSg-133" value="updated_at" style="ellipse;whiteSpace=wrap;html=1;" parent="1" vertex="1">
          <mxGeometry x="362" y="-288" width="81" height="37" as="geometry" />
        </mxCell>
        <mxCell id="oM0R_nX2dgZcSL13MjSg-134" value="created_at" style="ellipse;whiteSpace=wrap;html=1;" parent="1" vertex="1">
          <mxGeometry x="216" y="-266" width="81" height="37" as="geometry" />
        </mxCell>
        <mxCell id="oM0R_nX2dgZcSL13MjSg-135" value="" style="endArrow=none;html=1;rounded=0;exitX=1;exitY=0.5;exitDx=0;exitDy=0;entryX=0;entryY=0.5;entryDx=0;entryDy=0;" parent="1" source="oM0R_nX2dgZcSL13MjSg-131" target="oM0R_nX2dgZcSL13MjSg-130" edge="1">
          <mxGeometry width="50" height="50" relative="1" as="geometry">
            <mxPoint x="240" y="-129" as="sourcePoint" />
            <mxPoint x="290" y="-179" as="targetPoint" />
          </mxGeometry>
        </mxCell>
        <mxCell id="oM0R_nX2dgZcSL13MjSg-136" value="" style="endArrow=none;html=1;rounded=0;entryX=0;entryY=0;entryDx=0;entryDy=0;exitX=1;exitY=0.5;exitDx=0;exitDy=0;" parent="1" source="oM0R_nX2dgZcSL13MjSg-132" target="oM0R_nX2dgZcSL13MjSg-130" edge="1">
          <mxGeometry width="50" height="50" relative="1" as="geometry">
            <mxPoint x="258" y="-186" as="sourcePoint" />
            <mxPoint x="308" y="-236" as="targetPoint" />
          </mxGeometry>
        </mxCell>
        <mxCell id="oM0R_nX2dgZcSL13MjSg-137" value="" style="endArrow=none;html=1;rounded=0;exitX=0.5;exitY=1;exitDx=0;exitDy=0;entryX=0.5;entryY=0;entryDx=0;entryDy=0;" parent="1" source="oM0R_nX2dgZcSL13MjSg-134" target="oM0R_nX2dgZcSL13MjSg-130" edge="1">
          <mxGeometry width="50" height="50" relative="1" as="geometry">
            <mxPoint x="370" y="-106" as="sourcePoint" />
            <mxPoint x="337" y="-190" as="targetPoint" />
          </mxGeometry>
        </mxCell>
        <mxCell id="oM0R_nX2dgZcSL13MjSg-138" value="" style="endArrow=none;html=1;rounded=0;exitX=0.5;exitY=0;exitDx=0;exitDy=0;entryX=0.5;entryY=1;entryDx=0;entryDy=0;" parent="1" source="oM0R_nX2dgZcSL13MjSg-130" target="oM0R_nX2dgZcSL13MjSg-133" edge="1">
          <mxGeometry width="50" height="50" relative="1" as="geometry">
            <mxPoint x="266" y="-219" as="sourcePoint" />
            <mxPoint x="353" y="-182" as="targetPoint" />
          </mxGeometry>
        </mxCell>
        <mxCell id="oM0R_nX2dgZcSL13MjSg-139" value="season_clubs" style="rounded=0;whiteSpace=wrap;html=1;direction=east;" parent="1" vertex="1">
          <mxGeometry x="287" y="346" width="88" height="50" as="geometry" />
        </mxCell>
        <mxCell id="oM0R_nX2dgZcSL13MjSg-140" value="&lt;u&gt;id&lt;/u&gt;" style="ellipse;whiteSpace=wrap;html=1;direction=east;" parent="1" vertex="1">
          <mxGeometry x="275" y="275" width="49" height="27" as="geometry" />
        </mxCell>
        <mxCell id="oM0R_nX2dgZcSL13MjSg-141" value="season_id" style="ellipse;whiteSpace=wrap;html=1;direction=east;" parent="1" vertex="1">
          <mxGeometry x="358" y="279" width="74" height="27" as="geometry" />
        </mxCell>
        <mxCell id="oM0R_nX2dgZcSL13MjSg-142" value="updated_at" style="ellipse;whiteSpace=wrap;html=1;direction=east;" parent="1" vertex="1">
          <mxGeometry x="446" y="352.5" width="81" height="37" as="geometry" />
        </mxCell>
        <mxCell id="oM0R_nX2dgZcSL13MjSg-143" value="" style="endArrow=none;html=1;rounded=0;exitX=0.5;exitY=1;exitDx=0;exitDy=0;entryX=0.5;entryY=0;entryDx=0;entryDy=0;" parent="1" source="oM0R_nX2dgZcSL13MjSg-140" target="oM0R_nX2dgZcSL13MjSg-139" edge="1">
          <mxGeometry width="50" height="50" relative="1" as="geometry">
            <mxPoint x="-273" y="365" as="sourcePoint" />
            <mxPoint x="-223" y="315" as="targetPoint" />
          </mxGeometry>
        </mxCell>
        <mxCell id="oM0R_nX2dgZcSL13MjSg-144" value="" style="endArrow=none;html=1;rounded=0;entryX=0.5;entryY=0;entryDx=0;entryDy=0;exitX=0.5;exitY=1;exitDx=0;exitDy=0;" parent="1" source="oM0R_nX2dgZcSL13MjSg-141" target="oM0R_nX2dgZcSL13MjSg-139" edge="1">
          <mxGeometry width="50" height="50" relative="1" as="geometry">
            <mxPoint x="242" y="352" as="sourcePoint" />
            <mxPoint x="292" y="302" as="targetPoint" />
          </mxGeometry>
        </mxCell>
        <mxCell id="oM0R_nX2dgZcSL13MjSg-145" value="" style="endArrow=none;html=1;rounded=0;exitX=0;exitY=0.5;exitDx=0;exitDy=0;entryX=1;entryY=0.5;entryDx=0;entryDy=0;" parent="1" source="oM0R_nX2dgZcSL13MjSg-142" target="oM0R_nX2dgZcSL13MjSg-139" edge="1">
          <mxGeometry width="50" height="50" relative="1" as="geometry">
            <mxPoint x="-143" y="388" as="sourcePoint" />
            <mxPoint x="-176" y="304" as="targetPoint" />
          </mxGeometry>
        </mxCell>
        <mxCell id="oM0R_nX2dgZcSL13MjSg-146" value="club_id" style="ellipse;whiteSpace=wrap;html=1;direction=east;" parent="1" vertex="1">
          <mxGeometry x="446" y="279" width="61" height="27" as="geometry" />
        </mxCell>
        <mxCell id="oM0R_nX2dgZcSL13MjSg-147" value="" style="endArrow=none;html=1;rounded=0;exitX=1;exitY=0.5;exitDx=0;exitDy=0;entryX=0.5;entryY=1;entryDx=0;entryDy=0;" parent="1" source="oM0R_nX2dgZcSL13MjSg-139" target="oM0R_nX2dgZcSL13MjSg-146" edge="1">
          <mxGeometry width="50" height="50" relative="1" as="geometry">
            <mxPoint x="-51" y="348" as="sourcePoint" />
            <mxPoint x="9" y="289" as="targetPoint" />
          </mxGeometry>
        </mxCell>
        <mxCell id="oM0R_nX2dgZcSL13MjSg-148" value="created_at" style="ellipse;whiteSpace=wrap;html=1;direction=east;" parent="1" vertex="1">
          <mxGeometry x="429" y="409" width="81" height="37" as="geometry" />
        </mxCell>
        <mxCell id="oM0R_nX2dgZcSL13MjSg-149" value="" style="endArrow=none;html=1;rounded=0;exitX=0.5;exitY=0;exitDx=0;exitDy=0;entryX=1;entryY=0.5;entryDx=0;entryDy=0;" parent="1" source="oM0R_nX2dgZcSL13MjSg-148" target="oM0R_nX2dgZcSL13MjSg-139" edge="1">
          <mxGeometry width="50" height="50" relative="1" as="geometry">
            <mxPoint x="333" y="308" as="sourcePoint" />
            <mxPoint x="341" y="356" as="targetPoint" />
          </mxGeometry>
        </mxCell>
        <mxCell id="oM0R_nX2dgZcSL13MjSg-150" value="seasons" style="rounded=0;whiteSpace=wrap;html=1;" parent="1" vertex="1">
          <mxGeometry x="167.5" y="191" width="80" height="50" as="geometry" />
        </mxCell>
        <mxCell id="oM0R_nX2dgZcSL13MjSg-151" value="&lt;u&gt;id&lt;/u&gt;" style="ellipse;whiteSpace=wrap;html=1;" parent="1" vertex="1">
          <mxGeometry x="102" y="71" width="49" height="27" as="geometry" />
        </mxCell>
        <mxCell id="oM0R_nX2dgZcSL13MjSg-152" value="start_date" style="ellipse;whiteSpace=wrap;html=1;" parent="1" vertex="1">
          <mxGeometry x="159" y="71" width="70" height="27" as="geometry" />
        </mxCell>
        <mxCell id="oM0R_nX2dgZcSL13MjSg-153" value="updated_at" style="ellipse;whiteSpace=wrap;html=1;" parent="1" vertex="1">
          <mxGeometry x="295" y="139" width="81" height="37" as="geometry" />
        </mxCell>
        <mxCell id="oM0R_nX2dgZcSL13MjSg-154" value="created_at" style="ellipse;whiteSpace=wrap;html=1;" parent="1" vertex="1">
          <mxGeometry x="269" y="98" width="81" height="37" as="geometry" />
        </mxCell>
        <mxCell id="oM0R_nX2dgZcSL13MjSg-155" value="" style="endArrow=none;html=1;rounded=0;exitX=0.5;exitY=1;exitDx=0;exitDy=0;entryX=0.5;entryY=0;entryDx=0;entryDy=0;" parent="1" source="oM0R_nX2dgZcSL13MjSg-151" target="oM0R_nX2dgZcSL13MjSg-150" edge="1">
          <mxGeometry width="50" height="50" relative="1" as="geometry">
            <mxPoint x="104.5" y="254" as="sourcePoint" />
            <mxPoint x="154.5" y="204" as="targetPoint" />
          </mxGeometry>
        </mxCell>
        <mxCell id="oM0R_nX2dgZcSL13MjSg-156" value="" style="endArrow=none;html=1;rounded=0;entryX=0.5;entryY=0;entryDx=0;entryDy=0;exitX=0.5;exitY=1;exitDx=0;exitDy=0;" parent="1" source="oM0R_nX2dgZcSL13MjSg-152" target="oM0R_nX2dgZcSL13MjSg-150" edge="1">
          <mxGeometry width="50" height="50" relative="1" as="geometry">
            <mxPoint x="122.5" y="197" as="sourcePoint" />
            <mxPoint x="172.5" y="147" as="targetPoint" />
          </mxGeometry>
        </mxCell>
        <mxCell id="oM0R_nX2dgZcSL13MjSg-157" value="" style="endArrow=none;html=1;rounded=0;exitX=0;exitY=1;exitDx=0;exitDy=0;entryX=0.5;entryY=0;entryDx=0;entryDy=0;" parent="1" source="oM0R_nX2dgZcSL13MjSg-154" target="oM0R_nX2dgZcSL13MjSg-150" edge="1">
          <mxGeometry width="50" height="50" relative="1" as="geometry">
            <mxPoint x="234.5" y="277" as="sourcePoint" />
            <mxPoint x="201.5" y="193" as="targetPoint" />
          </mxGeometry>
        </mxCell>
        <mxCell id="oM0R_nX2dgZcSL13MjSg-158" value="" style="endArrow=none;html=1;rounded=0;exitX=0.5;exitY=0;exitDx=0;exitDy=0;entryX=0;entryY=0.5;entryDx=0;entryDy=0;" parent="1" source="oM0R_nX2dgZcSL13MjSg-150" target="oM0R_nX2dgZcSL13MjSg-153" edge="1">
          <mxGeometry width="50" height="50" relative="1" as="geometry">
            <mxPoint x="130.5" y="164" as="sourcePoint" />
            <mxPoint x="217.5" y="201" as="targetPoint" />
          </mxGeometry>
        </mxCell>
        <mxCell id="oM0R_nX2dgZcSL13MjSg-159" value="end_date" style="ellipse;whiteSpace=wrap;html=1;" parent="1" vertex="1">
          <mxGeometry x="236" y="68" width="70" height="27" as="geometry" />
        </mxCell>
        <mxCell id="oM0R_nX2dgZcSL13MjSg-160" value="" style="endArrow=none;html=1;rounded=0;exitX=0;exitY=1;exitDx=0;exitDy=0;entryX=0.5;entryY=0;entryDx=0;entryDy=0;" parent="1" source="oM0R_nX2dgZcSL13MjSg-159" target="oM0R_nX2dgZcSL13MjSg-150" edge="1">
          <mxGeometry width="50" height="50" relative="1" as="geometry">
            <mxPoint x="144.5" y="219" as="sourcePoint" />
            <mxPoint x="194.5" y="169" as="targetPoint" />
          </mxGeometry>
        </mxCell>
        <mxCell id="oM0R_nX2dgZcSL13MjSg-163" value="Assigned" style="rhombus;whiteSpace=wrap;html=1;" parent="1" vertex="1">
          <mxGeometry x="454" y="-270" width="70" height="66" as="geometry" />
        </mxCell>
        <mxCell id="oM0R_nX2dgZcSL13MjSg-165" value="" style="edgeStyle=entityRelationEdgeStyle;fontSize=12;html=1;endArrow=ERone;endFill=1;rounded=0;entryX=0;entryY=0.75;entryDx=0;entryDy=0;exitX=1;exitY=0.5;exitDx=0;exitDy=0;" parent="1" source="oM0R_nX2dgZcSL13MjSg-163" target="oM0R_nX2dgZcSL13MjSg-24" edge="1">
          <mxGeometry width="100" height="100" relative="1" as="geometry">
            <mxPoint x="512" y="-147" as="sourcePoint" />
            <mxPoint x="612" y="-247" as="targetPoint" />
          </mxGeometry>
        </mxCell>
        <mxCell id="oM0R_nX2dgZcSL13MjSg-166" value="" style="edgeStyle=entityRelationEdgeStyle;fontSize=12;html=1;endArrow=ERone;endFill=1;rounded=0;exitX=0;exitY=0.5;exitDx=0;exitDy=0;entryX=1;entryY=0.5;entryDx=0;entryDy=0;" parent="1" source="oM0R_nX2dgZcSL13MjSg-163" target="oM0R_nX2dgZcSL13MjSg-130" edge="1">
          <mxGeometry width="100" height="100" relative="1" as="geometry">
            <mxPoint x="494.5" y="-276" as="sourcePoint" />
            <mxPoint x="657" y="-267" as="targetPoint" />
          </mxGeometry>
        </mxCell>
        <mxCell id="oM0R_nX2dgZcSL13MjSg-167" value="Have" style="rhombus;whiteSpace=wrap;html=1;" parent="1" vertex="1">
          <mxGeometry x="552" y="-31.5" width="65" height="67" as="geometry" />
        </mxCell>
        <mxCell id="oM0R_nX2dgZcSL13MjSg-168" value="" style="edgeStyle=entityRelationEdgeStyle;fontSize=12;html=1;endArrow=ERone;endFill=1;rounded=0;exitX=0;exitY=0.5;exitDx=0;exitDy=0;entryX=1;entryY=0.5;entryDx=0;entryDy=0;" parent="1" source="oM0R_nX2dgZcSL13MjSg-167" target="oM0R_nX2dgZcSL13MjSg-1" edge="1">
          <mxGeometry width="100" height="100" relative="1" as="geometry">
            <mxPoint x="239" y="81" as="sourcePoint" />
            <mxPoint x="339" y="-19" as="targetPoint" />
          </mxGeometry>
        </mxCell>
        <mxCell id="oM0R_nX2dgZcSL13MjSg-169" value="" style="edgeStyle=entityRelationEdgeStyle;fontSize=12;html=1;endArrow=ERmany;rounded=0;exitX=1;exitY=0.5;exitDx=0;exitDy=0;entryX=0;entryY=0.25;entryDx=0;entryDy=0;" parent="1" source="oM0R_nX2dgZcSL13MjSg-167" target="oM0R_nX2dgZcSL13MjSg-46" edge="1">
          <mxGeometry width="100" height="100" relative="1" as="geometry">
            <mxPoint x="239" y="-2" as="sourcePoint" />
            <mxPoint x="339" y="-102" as="targetPoint" />
            <Array as="points">
              <mxPoint x="660" y="-43" />
            </Array>
          </mxGeometry>
        </mxCell>
        <mxCell id="oM0R_nX2dgZcSL13MjSg-170" value="" style="edgeStyle=entityRelationEdgeStyle;fontSize=12;html=1;endArrow=ERone;endFill=1;rounded=0;exitX=1;exitY=0.5;exitDx=0;exitDy=0;entryX=0;entryY=0.5;entryDx=0;entryDy=0;" parent="1" source="oM0R_nX2dgZcSL13MjSg-171" target="oM0R_nX2dgZcSL13MjSg-150" edge="1">
          <mxGeometry width="100" height="100" relative="1" as="geometry">
            <mxPoint x="562" y="12" as="sourcePoint" />
            <mxPoint x="465" y="12" as="targetPoint" />
          </mxGeometry>
        </mxCell>
        <mxCell id="oM0R_nX2dgZcSL13MjSg-171" value="Has" style="rhombus;whiteSpace=wrap;html=1;" parent="1" vertex="1">
          <mxGeometry x="26" y="176" width="80" height="80" as="geometry" />
        </mxCell>
        <mxCell id="oM0R_nX2dgZcSL13MjSg-173" value="" style="edgeStyle=entityRelationEdgeStyle;fontSize=12;html=1;endArrow=ERmany;rounded=0;entryX=1;entryY=0.5;entryDx=0;entryDy=0;exitX=0;exitY=0.5;exitDx=0;exitDy=0;" parent="1" source="oM0R_nX2dgZcSL13MjSg-171" target="oM0R_nX2dgZcSL13MjSg-4" edge="1">
          <mxGeometry width="100" height="100" relative="1" as="geometry">
            <mxPoint x="164" y="20" as="sourcePoint" />
            <mxPoint x="264" y="-80" as="targetPoint" />
            <Array as="points">
              <mxPoint x="-36" y="164" />
            </Array>
          </mxGeometry>
        </mxCell>
        <mxCell id="oM0R_nX2dgZcSL13MjSg-174" value="" style="edgeStyle=entityRelationEdgeStyle;fontSize=12;html=1;endArrow=ERmany;rounded=0;exitX=0.5;exitY=1;exitDx=0;exitDy=0;" parent="1" source="oM0R_nX2dgZcSL13MjSg-171" target="oM0R_nX2dgZcSL13MjSg-139" edge="1">
          <mxGeometry width="100" height="100" relative="1" as="geometry">
            <mxPoint x="4" y="225" as="sourcePoint" />
            <mxPoint x="242" y="269" as="targetPoint" />
            <Array as="points">
              <mxPoint x="63" y="326" />
              <mxPoint x="133" y="371" />
              <mxPoint x="79" y="294" />
              <mxPoint x="140" y="337" />
              <mxPoint x="-8" y="333" />
            </Array>
          </mxGeometry>
        </mxCell>
        <mxCell id="oM0R_nX2dgZcSL13MjSg-176" value="Starting&amp;nbsp;&lt;br&gt;Eleven" style="rhombus;whiteSpace=wrap;html=1;" parent="1" vertex="1">
          <mxGeometry x="-109" y="114" width="83" height="82" as="geometry" />
        </mxCell>
        <mxCell id="oM0R_nX2dgZcSL13MjSg-177" value="" style="edgeStyle=entityRelationEdgeStyle;fontSize=12;html=1;endArrow=ERmany;rounded=0;entryX=1;entryY=0.75;entryDx=0;entryDy=0;exitX=0.5;exitY=0;exitDx=0;exitDy=0;" parent="1" source="oM0R_nX2dgZcSL13MjSg-176" target="oM0R_nX2dgZcSL13MjSg-4" edge="1">
          <mxGeometry width="100" height="100" relative="1" as="geometry">
            <mxPoint x="-12" y="303" as="sourcePoint" />
            <mxPoint x="88" y="203" as="targetPoint" />
          </mxGeometry>
        </mxCell>
        <mxCell id="oM0R_nX2dgZcSL13MjSg-178" value="" style="edgeStyle=entityRelationEdgeStyle;fontSize=12;html=1;endArrow=ERmany;rounded=0;entryX=0;entryY=0.5;entryDx=0;entryDy=0;exitX=0;exitY=0;exitDx=0;exitDy=0;" parent="1" source="oM0R_nX2dgZcSL13MjSg-97" target="oM0R_nX2dgZcSL13MjSg-176" edge="1">
          <mxGeometry width="100" height="100" relative="1" as="geometry">
            <mxPoint x="-12" y="303" as="sourcePoint" />
            <mxPoint x="88" y="203" as="targetPoint" />
          </mxGeometry>
        </mxCell>
        <mxCell id="wut_mMVQPk3DbB4Z__7e-1" value="players" style="rounded=0;whiteSpace=wrap;html=1;" vertex="1" parent="1">
          <mxGeometry x="812.25" y="-159" width="80" height="50" as="geometry" />
        </mxCell>
        <mxCell id="wut_mMVQPk3DbB4Z__7e-2" value="&lt;u&gt;id&lt;/u&gt;" style="ellipse;whiteSpace=wrap;html=1;" vertex="1" parent="1">
          <mxGeometry x="793" y="-251" width="49" height="27" as="geometry" />
        </mxCell>
        <mxCell id="wut_mMVQPk3DbB4Z__7e-3" value="user_id" style="ellipse;whiteSpace=wrap;html=1;" vertex="1" parent="1">
          <mxGeometry x="860.25" y="-243" width="49" height="27" as="geometry" />
        </mxCell>
        <mxCell id="wut_mMVQPk3DbB4Z__7e-4" value="updated_at" style="ellipse;whiteSpace=wrap;html=1;" vertex="1" parent="1">
          <mxGeometry x="933.25" y="-106" width="81" height="37" as="geometry" />
        </mxCell>
        <mxCell id="wut_mMVQPk3DbB4Z__7e-5" value="created_at" style="ellipse;whiteSpace=wrap;html=1;" vertex="1" parent="1">
          <mxGeometry x="933.25" y="-153" width="81" height="37" as="geometry" />
        </mxCell>
        <mxCell id="wut_mMVQPk3DbB4Z__7e-6" value="" style="endArrow=none;html=1;rounded=0;exitX=1;exitY=1;exitDx=0;exitDy=0;entryX=0.5;entryY=0;entryDx=0;entryDy=0;" edge="1" parent="1" source="wut_mMVQPk3DbB4Z__7e-2" target="wut_mMVQPk3DbB4Z__7e-1">
          <mxGeometry width="50" height="50" relative="1" as="geometry">
            <mxPoint x="749.25" y="-96" as="sourcePoint" />
            <mxPoint x="799.25" y="-146" as="targetPoint" />
          </mxGeometry>
        </mxCell>
        <mxCell id="wut_mMVQPk3DbB4Z__7e-7" value="" style="endArrow=none;html=1;rounded=0;entryX=0.5;entryY=0;entryDx=0;entryDy=0;exitX=0.5;exitY=1;exitDx=0;exitDy=0;" edge="1" parent="1" source="wut_mMVQPk3DbB4Z__7e-3" target="wut_mMVQPk3DbB4Z__7e-1">
          <mxGeometry width="50" height="50" relative="1" as="geometry">
            <mxPoint x="767.25" y="-153" as="sourcePoint" />
            <mxPoint x="817.25" y="-203" as="targetPoint" />
          </mxGeometry>
        </mxCell>
        <mxCell id="wut_mMVQPk3DbB4Z__7e-8" value="" style="endArrow=none;html=1;rounded=0;exitX=0;exitY=0.5;exitDx=0;exitDy=0;entryX=1;entryY=1;entryDx=0;entryDy=0;" edge="1" parent="1" source="wut_mMVQPk3DbB4Z__7e-5" target="wut_mMVQPk3DbB4Z__7e-1">
          <mxGeometry width="50" height="50" relative="1" as="geometry">
            <mxPoint x="879.25" y="-73" as="sourcePoint" />
            <mxPoint x="846.25" y="-157" as="targetPoint" />
          </mxGeometry>
        </mxCell>
        <mxCell id="wut_mMVQPk3DbB4Z__7e-9" value="" style="endArrow=none;html=1;rounded=0;exitX=1;exitY=1;exitDx=0;exitDy=0;entryX=0;entryY=1;entryDx=0;entryDy=0;" edge="1" parent="1" source="wut_mMVQPk3DbB4Z__7e-1" target="wut_mMVQPk3DbB4Z__7e-4">
          <mxGeometry width="50" height="50" relative="1" as="geometry">
            <mxPoint x="775.25" y="-186" as="sourcePoint" />
            <mxPoint x="862.25" y="-149" as="targetPoint" />
          </mxGeometry>
        </mxCell>
        <mxCell id="wut_mMVQPk3DbB4Z__7e-10" value="batting_style" style="ellipse;whiteSpace=wrap;html=1;" vertex="1" parent="1">
          <mxGeometry x="914.25" y="-234" width="85" height="27" as="geometry" />
        </mxCell>
        <mxCell id="wut_mMVQPk3DbB4Z__7e-11" value="" style="endArrow=none;html=1;rounded=0;exitX=0.5;exitY=0;exitDx=0;exitDy=0;entryX=0.424;entryY=1.074;entryDx=0;entryDy=0;entryPerimeter=0;" edge="1" parent="1" source="wut_mMVQPk3DbB4Z__7e-1" target="wut_mMVQPk3DbB4Z__7e-10">
          <mxGeometry width="50" height="50" relative="1" as="geometry">
            <mxPoint x="474.25" y="-157" as="sourcePoint" />
            <mxPoint x="534.25" y="-216" as="targetPoint" />
          </mxGeometry>
        </mxCell>
        <mxCell id="wut_mMVQPk3DbB4Z__7e-12" value="bowling_style" style="ellipse;whiteSpace=wrap;html=1;" vertex="1" parent="1">
          <mxGeometry x="933.25" y="-189" width="85" height="27" as="geometry" />
        </mxCell>
        <mxCell id="wut_mMVQPk3DbB4Z__7e-13" value="" style="endArrow=none;html=1;rounded=0;exitX=1;exitY=0.5;exitDx=0;exitDy=0;entryX=0;entryY=1;entryDx=0;entryDy=0;" edge="1" parent="1" source="wut_mMVQPk3DbB4Z__7e-1" target="wut_mMVQPk3DbB4Z__7e-12">
          <mxGeometry width="50" height="50" relative="1" as="geometry">
            <mxPoint x="862.25" y="-149" as="sourcePoint" />
            <mxPoint x="782.25" y="-190" as="targetPoint" />
          </mxGeometry>
        </mxCell>
        <mxCell id="wut_mMVQPk3DbB4Z__7e-16" value="Consists &lt;br&gt;of" style="rhombus;whiteSpace=wrap;html=1;" vertex="1" parent="1">
          <mxGeometry x="666" y="-257.5" width="70" height="70.5" as="geometry" />
        </mxCell>
        <mxCell id="wut_mMVQPk3DbB4Z__7e-17" value="" style="edgeStyle=entityRelationEdgeStyle;fontSize=12;html=1;endArrow=ERmany;rounded=0;entryX=0;entryY=0.5;entryDx=0;entryDy=0;exitX=1;exitY=0.5;exitDx=0;exitDy=0;" edge="1" parent="1" source="wut_mMVQPk3DbB4Z__7e-16" target="wut_mMVQPk3DbB4Z__7e-1">
          <mxGeometry width="100" height="100" relative="1" as="geometry">
            <mxPoint x="611" y="-62" as="sourcePoint" />
            <mxPoint x="711" y="-162" as="targetPoint" />
          </mxGeometry>
        </mxCell>
        <mxCell id="wut_mMVQPk3DbB4Z__7e-18" value="" style="edgeStyle=entityRelationEdgeStyle;fontSize=12;html=1;endArrow=ERone;endFill=1;rounded=0;exitX=0.5;exitY=0;exitDx=0;exitDy=0;entryX=1;entryY=0.75;entryDx=0;entryDy=0;" edge="1" parent="1" source="wut_mMVQPk3DbB4Z__7e-16" target="oM0R_nX2dgZcSL13MjSg-24">
          <mxGeometry width="100" height="100" relative="1" as="geometry">
            <mxPoint x="559" y="-222" as="sourcePoint" />
            <mxPoint x="659" y="-322" as="targetPoint" />
          </mxGeometry>
        </mxCell>
      </root>
    </mxGraphModel>
  </diagram>
</mxfile>
